<svg version="1.0" xmlns="http://www.w3.org/2000/svg" viewBox="0 0 1280 1089" preserveAspectRatio="xMidYMid meet">
<metadata>
Created by potrace 1.15, written by Peter Selinger 2001-2017
</metadata>
<g transform="translate(0.000000,1089.000000) scale(0.100000,-0.100000)" fill="#3f5678" stroke="none">
<path d="M1730 10879 c-649 -73 -1218 -480 -1515 -1084 -93 -188 -150 -370&#10;-192 -605 -16 -87 -18 -286 -21 -2400 -2 -1597 0 -2340 8 -2418 47 -502 255&#10;-940 606 -1283 252 -244 516 -396 845 -484 218 -58 242 -59 1126 -60 l813 0 0&#10;-1185 c0 -675 4 -1202 10 -1224 12 -54 38 -87 91 -114 55 -29 118 -25 156 9&#10;25 23 185 212 1530 1801 l598 708 2630 3 c2441 3 2637 4 2730 20 432 75 775&#10;255 1076 563 58 60 126 136 151 169 240 317 380 678 418 1077 8 78 10 821 8&#10;2418 -4 2529 0 2339 -62 2595 -89 362 -305 736 -569 981 -320 298 -687 467&#10;-1109 513 -119 13 -9213 13 -9328 0z"/>
</g>
</svg>